<svg width="109" height="54" viewBox="0 0 109 54" fill="none" xmlns="http://www.w3.org/2000/svg">
<path d="M54.7076 7.73967C54.6107 7.53658 54.4101 7.39738 54.1102 7.44562C47.1893 8.65896 40.2706 9.92305 33.3586 11.1849C26.4068 12.46 19.4573 13.7417 12.5077 15.0014C8.60079 15.7124 4.68285 16.4124 0.769323 17.1036C0.262219 17.1913 -0.0753459 17.8772 0.411752 18.2374C3.60983 20.6522 6.74173 23.1553 9.75894 25.7994C10.2709 30.6079 11.0363 35.3835 11.546 40.1853C11.5482 40.2581 11.5636 40.3266 11.5857 40.3928C11.6583 40.6554 11.8368 40.7946 12.0485 40.8345C12.2094 40.8766 12.3902 40.868 12.5644 40.7512C14.9371 39.2708 17.2923 37.7595 19.665 36.279C20.9124 37.688 22.1509 39.1146 23.4798 40.4376C24.8969 41.849 26.5367 42.8921 28.1237 44.0852C28.7915 44.5911 29.5012 45.0684 29.7544 45.8961C29.9526 46.5362 30.175 47.205 30.876 47.4351C30.8937 47.444 30.9091 47.4462 30.9245 47.4484C31.1604 47.5833 31.4492 47.5681 31.6433 47.2682C31.6499 47.266 31.6477 47.2594 31.6543 47.2572C31.6852 47.2175 31.7095 47.18 31.7382 47.1337C38.1199 37.341 44.0871 27.2963 49.845 17.1301C51.4908 14.2148 53.1277 11.295 54.7559 8.37078C54.8794 8.12377 54.842 7.90088 54.7076 7.73967ZM15.4867 31.7119C15.4933 31.6876 15.4999 31.6634 15.5132 31.6369C16.6106 32.8604 17.6993 34.0794 18.7968 35.3029C16.9665 36.4485 15.1472 37.6051 13.3191 38.7573C14.0365 36.4081 14.7605 34.0567 15.4867 31.7119ZM15.0068 29.7609C14.7576 29.8511 14.6341 30.0319 14.6032 30.226C14.5987 30.2349 14.5987 30.2349 14.5943 30.2437C13.8858 32.5311 13.1861 34.823 12.4775 37.1104C12.0159 33.381 11.4683 29.6581 11.0618 25.9177C19.8595 22.9697 28.5757 19.7767 37.1906 16.3232C34.9877 17.5633 32.809 18.8542 30.6942 20.2488C28.2884 21.8284 25.9728 23.5472 23.5758 25.1534C20.881 26.9689 18.0849 28.6783 15.0068 29.7609ZM2.37174 18.1224C8.79654 16.9858 15.2125 15.8227 21.6307 14.6441C28.5825 13.3691 35.5321 12.0873 42.4816 10.8277C45.0943 10.3559 47.7092 9.89069 50.3241 9.42551C40.2957 13.8197 30.1043 17.8564 19.7939 21.5354C16.707 22.6356 13.609 23.7027 10.5023 24.7433C7.87078 22.4415 5.15103 20.25 2.37174 18.1224ZM36.0605 37.9303C34.4148 40.5809 32.7361 43.2204 31.0354 45.8378C30.8768 45.4714 30.8086 44.9792 30.6478 44.7165C30.2379 44.0144 29.4334 43.4731 28.7899 42.9958C27.2404 41.8491 25.6645 40.8215 24.2915 39.4544C22.8281 37.9922 21.486 36.4088 20.1065 34.8673C18.8437 33.4561 17.5832 32.0516 16.327 30.6382C21.4624 28.6287 25.8554 25.0718 30.3827 22.007C35.0578 18.8343 40.0413 16.1253 45.0733 13.5619C47.4856 12.3331 49.9244 11.1396 52.3742 9.97916C47.1171 19.3979 41.7541 28.7635 36.0605 37.9303Z" fill="#FFC700"/>
<path d="M63.9951 9.41245C64.7742 9.41245 65.4482 9.52376 66.0171 9.74637C66.586 9.95662 67.0807 10.2472 67.5012 10.6183V13.2154C67.2044 12.9928 66.8952 12.7764 66.5737 12.5661C66.2521 12.3559 65.8873 12.1827 65.4792 12.0467C65.0834 11.9107 64.6134 11.8426 64.0693 11.8426C63.3272 11.8426 62.6532 12.022 62.0472 12.3806C61.4412 12.7393 60.9589 13.2216 60.6002 13.8276C60.2416 14.4336 60.0622 15.1262 60.0622 15.9053C60.0622 16.6721 60.2416 17.3647 60.6002 17.9831C60.9589 18.5891 61.4412 19.0714 62.0472 19.43C62.6532 19.7763 63.3272 19.9495 64.0693 19.9495C64.8979 19.9495 65.5905 19.8258 66.147 19.5784C66.7159 19.3187 67.2291 19.0034 67.6867 18.6323V21.1367C67.2662 21.5201 66.7406 21.8293 66.1099 22.0643C65.4792 22.2869 64.7742 22.3982 63.9951 22.3982C63.1046 22.3982 62.2636 22.2436 61.4721 21.9344C60.6806 21.6129 59.9818 21.1677 59.3758 20.5988C58.7698 20.0175 58.2937 19.3311 57.9474 18.5396C57.6011 17.7481 57.428 16.87 57.428 15.9053C57.428 14.9407 57.6011 14.0626 57.9474 13.2711C58.2937 12.4796 58.7698 11.7994 59.3758 11.2305C59.9818 10.6492 60.6806 10.204 61.4721 9.89478C62.2636 9.57323 63.1046 9.41245 63.9951 9.41245Z" fill="#FFC700"/>
<path d="M75.8678 9.41245C76.7582 9.41245 77.593 9.57323 78.3722 9.89478C79.1513 10.204 79.8377 10.6492 80.4313 11.2305C81.0373 11.7994 81.5073 12.4796 81.8412 13.2711C82.1875 14.0626 82.3606 14.9407 82.3606 15.9053C82.3606 16.87 82.1875 17.7481 81.8412 18.5396C81.5073 19.3311 81.0373 20.0175 80.4313 20.5988C79.8377 21.1677 79.1513 21.6129 78.3722 21.9344C77.593 22.2436 76.7582 22.3982 75.8678 22.3982C74.9773 22.3982 74.1363 22.2436 73.3448 21.9344C72.5657 21.6129 71.8731 21.1677 71.2671 20.5988C70.6735 20.0175 70.2035 19.3311 69.8572 18.5396C69.5233 17.7481 69.3563 16.87 69.3563 15.9053C69.3563 14.9407 69.5233 14.0626 69.8572 13.2711C70.2035 12.4796 70.6735 11.7994 71.2671 11.2305C71.8731 10.6492 72.5657 10.204 73.3448 9.89478C74.1363 9.57323 74.9773 9.41245 75.8678 9.41245ZM75.8678 11.8426C75.1257 11.8426 74.4579 12.022 73.8642 12.3806C73.283 12.7393 72.8254 13.2216 72.4915 13.8276C72.1575 14.4336 71.9906 15.1262 71.9906 15.9053C71.9906 16.6721 72.1575 17.3647 72.4915 17.9831C72.8254 18.5891 73.283 19.0714 73.8642 19.43C74.4579 19.7763 75.1257 19.9495 75.8678 19.9495C76.6098 19.9495 77.2715 19.7763 77.8527 19.43C78.434 19.0714 78.8916 18.5891 79.2255 17.9831C79.5594 17.3647 79.7264 16.6721 79.7264 15.9053C79.7264 15.1262 79.5594 14.4336 79.2255 13.8276C78.8916 13.2216 78.434 12.7393 77.8527 12.3806C77.2715 12.022 76.6098 11.8426 75.8678 11.8426Z" fill="#FFC700"/>
<path d="M89.8738 9.3939C91.1848 9.3939 92.3349 9.6598 93.3243 10.1916C94.3137 10.7234 95.0805 11.4654 95.6247 12.4177C96.1812 13.37 96.4595 14.4893 96.4595 15.7755C96.4595 16.9998 96.1997 18.1129 95.6803 19.1147C95.1609 20.1041 94.4188 20.8894 93.4542 21.4707C92.4895 22.0519 91.3394 22.3426 90.0037 22.3426C89.1503 22.3426 88.297 22.2993 87.4436 22.2127C86.6027 22.1261 85.805 22.0086 85.0505 21.8602V9.87623C85.8173 9.75255 86.6027 9.64125 87.4065 9.54231C88.2104 9.44337 89.0328 9.3939 89.8738 9.3939ZM89.9295 11.8055C89.5585 11.8055 89.1689 11.8241 88.7608 11.8612C88.3526 11.8983 87.9754 11.9478 87.6291 12.0096V19.7269C88.0002 19.8011 88.3836 19.8567 88.7793 19.8938C89.1874 19.9185 89.5708 19.9309 89.9295 19.9309C90.7457 19.9309 91.4445 19.7578 92.0258 19.4115C92.607 19.0528 93.0522 18.5643 93.3614 17.9459C93.6706 17.3276 93.8252 16.635 93.8252 15.8682C93.8252 15.0767 93.6706 14.378 93.3614 13.772C93.0522 13.166 92.607 12.6898 92.0258 12.3435C91.4445 11.9849 90.7457 11.8055 89.9295 11.8055Z" fill="#FFC700"/>
<path d="M107.219 14.7366V16.8329H101.728V19.8382H107.943V22.1199H99.1494V9.69072H107.943V11.9168H101.728V14.7366H107.219Z" fill="#FFC700"/>
<path d="M63.2716 32.3478C64.5825 32.3478 65.7327 32.6137 66.7221 33.1455C67.7115 33.6773 68.4782 34.4193 69.0224 35.3716C69.5789 36.3239 69.8572 37.4431 69.8572 38.7293C69.8572 39.9537 69.5975 41.0668 69.0781 42.0685C68.5586 43.0579 67.8166 43.8433 66.8519 44.4245C65.8873 45.0058 64.7371 45.2964 63.4014 45.2964C62.5481 45.2964 61.6947 45.2531 60.8414 45.1666C60.0004 45.08 59.2027 44.9625 58.4483 44.8141V32.8301C59.2151 32.7064 60.0004 32.5951 60.8043 32.4962C61.6082 32.3972 62.4306 32.3478 63.2716 32.3478ZM63.3272 34.7594C62.9562 34.7594 62.5666 34.778 62.1585 34.8151C61.7504 34.8522 61.3732 34.9016 61.0269 34.9635V42.6807C61.3979 42.7549 61.7813 42.8106 62.1771 42.8477C62.5852 42.8724 62.9686 42.8848 63.3272 42.8848C64.1435 42.8848 64.8422 42.7116 65.4235 42.3654C66.0048 42.0067 66.45 41.5182 66.7592 40.8998C67.0684 40.2815 67.223 39.5889 67.223 38.8221C67.223 38.0306 67.0684 37.3318 66.7592 36.7258C66.45 36.1198 66.0048 35.6437 65.4235 35.2974C64.8422 34.9387 64.1435 34.7594 63.3272 34.7594Z" fill="#FFC700"/>
<path d="M80.6168 37.6905V39.7868H75.1257V42.792H81.3403V45.0738H72.5471V32.6446H81.3403V34.8707H75.1257V37.6905H80.6168Z" fill="#FFC700"/>
<path d="M89.7254 32.6446C90.3067 32.6446 90.8756 32.7435 91.4321 32.9414C91.9887 33.1393 92.4895 33.4299 92.9348 33.8133C93.3924 34.1967 93.751 34.6605 94.0107 35.2046C94.2828 35.7364 94.4188 36.3486 94.4188 37.0412C94.4188 37.8822 94.2024 38.6304 93.7696 39.2859C93.3491 39.929 92.7863 40.436 92.0814 40.8071C91.3765 41.1781 90.6097 41.3636 89.7811 41.3636C89.2245 41.3636 88.7237 41.3079 88.2784 41.1966C87.8332 41.0853 87.4622 40.9555 87.1654 40.8071V45.0738H84.5868V32.6446H89.7254ZM87.1654 35.0562V38.7293C87.4375 38.8407 87.7652 38.9396 88.1486 39.0262C88.5443 39.1004 88.9463 39.1375 89.3544 39.1375C90.0964 39.1375 90.6839 38.9334 91.1168 38.5253C91.562 38.1048 91.7846 37.6101 91.7846 37.0412C91.7846 36.3857 91.5372 35.891 91.0425 35.5571C90.5479 35.2232 89.9666 35.0562 89.2987 35.0562H87.1654Z" fill="#FFC700"/>
<path d="M102.507 32.3663C103.398 32.3663 104.232 32.5271 105.012 32.8487C105.791 33.1578 106.477 33.6031 107.071 34.1843C107.677 34.7532 108.147 35.4334 108.481 36.225C108.827 37.0165 109 37.8945 109 38.8592C109 39.8239 108.827 40.7019 108.481 41.4935C108.147 42.285 107.677 42.9714 107.071 43.5526C106.477 44.1215 105.791 44.5668 105.012 44.8883C104.232 45.1975 103.398 45.3521 102.507 45.3521C101.617 45.3521 100.776 45.1975 99.9842 44.8883C99.205 44.5668 98.5125 44.1215 97.9064 43.5526C97.3128 42.9714 96.8429 42.285 96.4966 41.4935C96.1626 40.7019 95.9957 39.8239 95.9957 38.8592C95.9957 37.8945 96.1626 37.0165 96.4966 36.225C96.8429 35.4334 97.3128 34.7532 97.9064 34.1843C98.5125 33.6031 99.205 33.1578 99.9842 32.8487C100.776 32.5271 101.617 32.3663 102.507 32.3663ZM102.507 34.7965C101.765 34.7965 101.097 34.9758 100.504 35.3345C99.9223 35.6932 99.4647 36.1755 99.1308 36.7815C98.7969 37.3875 98.6299 38.0801 98.6299 38.8592C98.6299 39.626 98.7969 40.3186 99.1308 40.9369C99.4647 41.5429 99.9223 42.0253 100.504 42.3839C101.097 42.7302 101.765 42.9033 102.507 42.9033C103.249 42.9033 103.911 42.7302 104.492 42.3839C105.073 42.0253 105.531 41.5429 105.865 40.9369C106.199 40.3186 106.366 39.626 106.366 38.8592C106.366 38.0801 106.199 37.3875 105.865 36.7815C105.531 36.1755 105.073 35.6932 104.492 35.3345C103.911 34.9758 103.249 34.7965 102.507 34.7965Z" fill="#FFC700"/>
</svg>
