<svg width="35" height="30" viewBox="0 0 35 30" fill="none" xmlns="http://www.w3.org/2000/svg">
<path fill-rule="evenodd" clip-rule="evenodd" d="M12.0968 20.3226C16.6398 20.3226 20.3226 16.6398 20.3226 12.0968C20.3226 7.55379 16.6398 3.87097 12.0968 3.87097C7.55379 3.87097 3.87097 7.55379 3.87097 12.0968C3.87097 16.6398 7.55379 20.3226 12.0968 20.3226ZM12.0968 24.1935C18.7776 24.1935 24.1935 18.7776 24.1935 12.0968C24.1935 5.41591 18.7776 0 12.0968 0C5.41591 0 0 5.41591 0 12.0968C0 18.7776 5.41591 24.1935 12.0968 24.1935Z" fill="#212121"/>
<path fill-rule="evenodd" clip-rule="evenodd" d="M31.9354 30L19.3548 19.3548L21.8552 16.3998L34.4359 27.045L31.9354 30Z" fill="#212121"/>
</svg>
